<svg width="20" height="20" viewBox="0 0 20 20" fill="none" xmlns="http://www.w3.org/2000/svg">
<g clip-path="url(#clip0_35083_112)">
<path d="M13.7512 0C12.6849 0.0737496 11.4387 0.756246 10.7124 1.64499C10.0499 2.45124 9.50493 3.64873 9.71743 4.81247C10.8824 4.84872 12.0862 4.14998 12.7837 3.24623C13.4362 2.40499 13.9299 1.21499 13.7512 0Z" fill="#1E222E"/>
<path d="M17.9609 6.70995C16.9372 5.42621 15.4984 4.68121 14.1397 4.68121C12.346 4.68121 11.5872 5.53996 10.341 5.53996C9.05597 5.53996 8.07973 4.68371 6.52848 4.68371C5.00474 4.68371 3.38225 5.61496 2.35351 7.20745C0.907266 9.44993 1.15476 13.6662 3.4985 17.2574C4.33725 18.5424 5.45724 19.9874 6.92223 19.9999C8.22597 20.0124 8.59347 19.1636 10.3597 19.1549C12.126 19.1449 12.461 20.0111 13.7622 19.9974C15.2284 19.9861 16.4097 18.3849 17.2484 17.0999C17.8497 16.1786 18.0734 15.7149 18.5397 14.6749C15.1484 13.3837 14.6047 8.56119 17.9609 6.70995Z" fill="#1E222E"/>
</g>
<defs>
<clipPath id="clip0_35083_112">
<rect width="20" height="20" fill="white"/>
</clipPath>
</defs>
</svg>
